<svg width="18" height="18" viewBox="0 0 18 18" fill="none" xmlns="http://www.w3.org/2000/svg">
<path d="M16.4732 2.20409C15.5452 1.20668 14.245 0.639171 12.8826 0.637067C11.5192 0.638645 10.2176 1.20586 9.28822 2.20346L8.97148 2.53816L8.65473 2.20346C6.8106 0.218665 3.7066 0.104681 1.72185 1.94882C1.6339 2.03056 1.54896 2.11547 1.46721 2.20346C-0.489069 4.31354 -0.489069 7.57457 1.46721 9.68466L8.506 17.1075C8.74952 17.3646 9.15534 17.3756 9.41242 17.1321C9.42083 17.1241 9.42902 17.1159 9.43699 17.1075L16.4732 9.68466C18.4294 7.5748 18.4294 4.31395 16.4732 2.20409ZM15.5454 8.80176H15.5448L8.97148 15.7348L2.39756 8.80176C0.903076 7.18946 0.903076 4.69802 2.39756 3.08572C3.75473 1.61475 6.04743 1.52252 7.51839 2.87969C7.58981 2.94559 7.65852 3.0143 7.72442 3.08572L8.506 3.91028C8.76357 4.16619 9.17942 4.16619 9.43699 3.91028L10.2186 3.08636C11.5757 1.61539 13.8684 1.52316 15.3394 2.88033C15.4108 2.94623 15.4795 3.01494 15.5454 3.08636C17.0529 4.70121 17.064 7.1972 15.5454 8.80176Z" fill="black"/>
</svg>
